<svg width="68" height="38" viewBox="0 0 68 38" fill="none" xmlns="http://www.w3.org/2000/svg">
<g clip-path="url(#clip0_1_90)">
<path d="M64.1905 12.0034C61.2981 12.0034 58.9531 14.333 58.9531 17.2066V37.9891H61.9632C63.598 37.9891 64.9233 36.6725 64.9233 35.0483V12.0034H64.1905Z" fill="#14FFEB"/>
<path d="M61.9384 10.1347C63.5807 10.1347 64.912 8.81213 64.912 7.1806C64.912 5.54906 63.5807 4.22645 61.9384 4.22645C60.2962 4.22645 58.9648 5.54906 58.9648 7.1806C58.9648 8.81213 60.2962 10.1347 61.9384 10.1347Z" fill="#14FFEB"/>
<path d="M44.0618 12.0643C41.463 12.0393 39.0369 12.7761 36.9927 14.0607V-0.01091H36.2595C33.3671 -0.01091 31.0221 2.3187 31.0221 5.19228V19.526L22.6999 28.2347L21.3955 29.5816C20.1056 31.0481 18.2105 31.9759 16.0961 31.9759C12.2099 31.9759 9.05954 28.8462 9.05954 24.9853C9.05954 21.1245 12.2099 17.9948 16.0961 17.9948C19.9824 17.9948 23.1327 21.1245 23.1327 24.9853C23.1327 25.2587 23.1154 25.5283 23.0845 25.7936L23.087 25.7883C23.087 25.7883 25.2457 24.1191 26.4527 21.5889C27.563 19.2614 26.855 17.7618 26.4842 17.2094C24.1102 14.0843 20.3412 12.0632 16.0965 12.0632C8.91292 12.0632 3.08936 17.8487 3.08936 24.9853C3.08936 32.122 8.91292 37.9075 16.0965 37.9075C20.0245 37.9075 23.5428 36.1753 25.9278 33.4407L31.4616 27.6499L38.6813 20.3384C39.9854 18.8842 41.8897 17.9751 44.0041 17.9955C47.89 18.0331 51.0095 21.1931 50.9716 25.0536C50.9337 28.9141 47.753 32.0132 43.867 31.9756C39.9811 31.9379 36.8616 28.778 36.8995 24.9171C36.9024 24.6437 36.9225 24.3745 36.9558 24.1092L36.9534 24.1142C36.9534 24.1142 34.7784 25.7626 33.5466 28.2808C32.4136 30.5974 33.1068 32.1037 33.4719 32.6599C35.8151 35.808 39.5643 37.8652 43.809 37.9064C50.9922 37.9761 56.872 32.2472 56.9422 25.111C57.0112 17.9754 51.245 12.1336 44.0618 12.0643Z" fill="#14FFEB"/>
</g>
<defs>
<clipPath id="clip0_1_90">
<rect width="68" height="38" fill="white"/>
</clipPath>
</defs>
</svg>
