<svg width="187" height="35" viewBox="0 0 187 35" fill="none" xmlns="http://www.w3.org/2000/svg" aria-hidden="true">
<g clip-path="url(#clip0_subskribe)">
<path d="M44.6064 25.5091L46.3581 22.8161C47.9516 23.9572 49.8001 24.7179 51.8705 24.7179C53.4309 24.7179 54.5145 24.0534 54.5145 23.0392C54.5145 21.7713 53.0816 21.3605 51.2 20.8533C47.6306 19.9353 45.369 18.9211 45.3359 16.0051C45.3359 12.9318 47.8855 10.8398 51.5494 10.8398C53.811 10.8398 56.075 11.6334 57.8597 12.805L56.2355 15.6247C54.6751 14.641 52.9848 14.1362 51.5518 14.1362C50.1825 14.1362 49.1296 14.6739 49.1296 15.5942C49.1296 16.6413 49.989 16.9583 52.5079 17.6861C55.2794 18.4468 58.2752 19.3977 58.2752 22.8208C58.2752 25.9575 55.6619 27.9861 51.8067 27.9861C49.2902 27.9814 46.5824 27.0939 44.6064 25.5091Z" fill="#190D44"/>
<path d="M75.9639 11.2148V27.6004H72.0757V25.4145C71.0559 26.9359 69.1437 27.9807 66.9765 27.9807C63.3763 27.9807 60.8574 25.3511 60.8574 21.6416V11.2148H64.6181V20.8809C64.6181 23.0996 66.0511 24.6844 68.0908 24.6844C70.1305 24.6844 71.8184 23.3226 72.0734 21.5782V11.2148H75.9639Z" fill="#190D44"/>
<path d="M96.7764 19.3953C96.7764 24.4338 93.5894 27.9837 89.2244 27.9837C86.7716 27.9837 84.7956 26.8732 83.4878 25.0043V27.6034H79.5996V5.44922H81.5992C82.6426 5.44922 83.4878 6.28974 83.4878 7.32748V13.8169C84.7933 11.948 86.7692 10.8375 89.2244 10.8375C93.5894 10.8375 96.7764 14.3874 96.7764 19.3953ZM92.919 19.3953C92.919 16.322 90.943 14.1339 88.1715 14.1339C85.4307 14.1339 83.5185 16.3197 83.5185 19.3953C83.5185 22.4687 85.4307 24.6874 88.1715 24.6874C90.943 24.6874 92.919 22.4687 92.919 19.3953Z" fill="#190D44"/>
<path d="M98.4336 25.5091L100.185 22.8161C101.779 23.9572 103.627 24.7179 105.698 24.7179C107.258 24.7179 108.342 24.0534 108.342 23.0392C108.342 21.7713 106.909 21.3605 105.027 20.8533C101.458 19.9353 99.1961 18.9211 99.1631 16.0051C99.1631 12.9318 101.713 10.8398 105.377 10.8398C107.638 10.8398 109.902 11.6334 111.687 12.805L110.063 15.6247C108.502 14.641 106.812 14.1362 105.379 14.1362C104.01 14.1362 102.957 14.6739 102.957 15.5942C102.957 16.6413 103.816 16.9583 106.335 17.6861C109.107 18.4468 112.102 19.3977 112.102 22.8208C112.102 25.9575 109.489 27.9861 105.634 27.9861C103.117 27.9814 100.41 27.0939 98.4336 25.5091Z" fill="#190D44"/>
<path d="M123.514 18.5384L130.08 27.6034H125.554L120.901 21.074L118.576 23.5158V27.6034H114.688V5.44922H116.687C117.731 5.44922 118.576 6.28974 118.576 7.32748V18.9821L125.715 11.2178H130.304L123.514 18.5384Z" fill="#190D44"/>
<path d="M141.808 10.8359V14.1323C138.272 14.1323 135.914 16.2242 135.914 19.3304V27.6018H132.025V11.2163H135.914V14.3859C136.964 12.1977 139.101 10.8359 141.808 10.8359Z" fill="#190D44"/>
<path d="M143.689 6.52568C143.689 5.35411 144.676 4.33984 145.92 4.33984C147.131 4.33984 148.118 5.35411 148.118 6.52568C148.118 7.69959 147.129 8.74438 145.92 8.74438C144.676 8.74438 143.689 7.69724 143.689 6.52568ZM143.944 11.2166H147.833V27.6022H143.944V11.2166Z" fill="#190D44"/>
<path d="M168.674 19.3953C168.674 24.4338 165.487 27.9837 161.122 27.9837C158.669 27.9837 156.693 26.8732 155.385 25.0043V27.6034H151.497V5.44922H153.497C154.54 5.44922 155.385 6.28974 155.385 7.32748V13.8169C156.691 11.948 158.667 10.8375 161.122 10.8375C165.487 10.8375 168.674 14.3874 168.674 19.3953ZM164.819 19.3953C164.819 16.322 162.843 14.1339 160.071 14.1339C157.33 14.1339 155.418 16.3197 155.418 19.3953C155.418 22.4687 157.33 24.6874 160.071 24.6874C162.843 24.6874 164.819 22.4687 164.819 19.3953Z" fill="#190D44"/>
<path d="M183.398 22.9108L185.85 25.4465C184.417 26.9679 181.549 27.9822 179.158 27.9822C174.441 27.9822 170.553 24.4017 170.553 19.3609C170.553 14.4493 174.25 10.8359 178.933 10.8359C184.033 10.8359 186.995 14.6699 186.995 20.725H174.566C175.043 22.9742 176.764 24.559 179.122 24.559C180.657 24.559 182.475 23.8617 183.398 22.9108ZM174.604 17.7761H183.272C182.826 15.7171 181.424 14.2591 179.099 14.2591C176.929 14.2591 175.175 15.6208 174.604 17.7761Z" fill="#190D44"/>
<path d="M28.792 8.66416C28.5985 7.72034 28.2821 6.82581 27.8619 5.99937C27.444 5.17294 26.9223 4.41459 26.3203 3.73841C25.0927 2.36493 23.5276 1.32484 21.7782 0.72849C20.9048 0.430315 19.9841 0.240141 19.0398 0.17675C18.0955 0.113358 17.1252 0.172054 16.1597 0.369272C15.2106 0.561794 14.3112 0.876404 13.4802 1.29432C12.6492 1.70988 11.8867 2.22876 11.2068 2.82745C9.82339 4.04833 8.77758 5.60494 8.17795 7.34468C7.87813 8.21338 7.68691 9.12904 7.62317 10.0682C7.55943 11.0073 7.61845 11.9723 7.81675 12.9325L9.52122 21.2157C9.76438 22.4013 10.9306 23.1667 12.1228 22.9249C13.3149 22.6831 14.0846 21.5232 13.8414 20.3376L12.1346 12.0544C12.0165 11.4816 11.9811 10.9181 12.0189 10.3663C12.0756 9.54225 12.2975 8.74634 12.6587 8.02321C13.0199 7.29773 13.5203 6.64503 14.1318 6.10737C14.5307 5.7552 14.9769 5.45233 15.4632 5.20816C15.9495 4.96398 16.476 4.7785 17.0426 4.66346C17.6186 4.54607 18.1852 4.51085 18.74 4.54841C19.5686 4.60476 20.3689 4.82546 21.096 5.18468C21.8255 5.54389 22.4817 6.04164 23.0224 6.64972C23.3765 7.04651 23.681 7.49025 23.9265 7.9739C24.172 8.45755 24.3585 8.98112 24.4742 9.5446C24.7174 10.7303 25.8836 11.4957 27.0758 11.2538C28.268 11.0096 29.0376 9.85217 28.792 8.66416Z" fill="#33DC8A"/>
<path d="M22.4841 33.9724C23.4213 34.2823 24.3751 34.4584 25.3218 34.5077C26.7406 34.5805 28.1381 34.3692 29.4365 33.9114C30.7373 33.4535 31.9413 32.7492 32.98 31.8335C33.6599 31.2348 34.269 30.5446 34.7836 29.7745C35.2983 29.0044 35.7209 28.1545 36.0278 27.2388C36.3394 26.3067 36.5164 25.3582 36.566 24.4167C36.6392 23.0057 36.4267 21.6158 35.9664 20.3245C35.506 19.0308 34.7978 17.8334 33.8771 16.8004C33.2751 16.1242 32.5811 15.5185 31.8067 15.0066C31.0324 14.4948 30.1778 14.0745 29.2571 13.7693L21.1928 11.0975C20.0384 10.7148 18.7896 11.3346 18.4047 12.4827C18.0199 13.6308 18.6432 14.8728 19.7976 15.2555L27.8619 17.9297C28.4096 18.1105 28.9101 18.357 29.3634 18.6575C29.8166 18.958 30.2227 19.3126 30.5768 19.7093C31.2992 20.5193 31.802 21.5078 32.0286 22.5643C32.142 23.0926 32.1892 23.6396 32.1585 24.189C32.1302 24.7407 32.0263 25.2972 31.8422 25.8513C31.6604 26.396 31.4125 26.8937 31.1103 27.3445C30.8081 27.7953 30.4517 28.1991 30.0527 28.5513C29.2382 29.2697 28.2444 29.7698 27.182 29.9952C26.6509 30.1079 26.1008 30.1548 25.5484 30.1243C24.9936 30.0961 24.4341 29.9928 23.877 29.8097C22.7226 29.427 21.4737 30.0468 21.0889 31.1949C20.7065 32.3477 21.3297 33.5897 22.4841 33.9724Z" fill="#469CF3"/>
<path d="M3.60262 15.8839C2.50015 16.8559 1.6432 18.0111 1.04356 19.2601C0.144118 21.136 -0.176944 23.2186 0.0921814 25.2518C0.226744 26.2684 0.510035 27.2709 0.944413 28.2288C1.37879 29.1844 1.9619 30.093 2.69609 30.9148C3.67344 32.0112 4.83493 32.8635 6.09086 33.4598C7.9771 34.3543 10.0711 34.6736 12.1155 34.406C13.1377 34.2722 14.1457 33.9904 15.1089 33.5584C16.0698 33.1264 16.9834 32.5465 17.8096 31.8163L24.1695 26.2074C25.0808 25.4044 25.1634 24.0192 24.356 23.1129C23.5486 22.2067 22.1558 22.1245 21.2445 22.9274L14.8847 28.5364C14.2284 29.114 13.4965 29.5249 12.7246 29.7855C11.5654 30.1752 10.3095 30.2151 9.13387 29.9146C8.54604 29.7643 7.97946 29.5295 7.45065 29.2126C6.92184 28.8956 6.43316 28.4942 5.99643 28.0058C5.41568 27.3531 5.00255 26.6253 4.7405 25.8575C4.34862 24.7048 4.30849 23.4557 4.61066 22.2865C4.76175 21.7019 4.99783 21.1384 5.31653 20.6125C5.63523 20.0866 6.03892 19.6006 6.52996 19.1662C7.44121 18.3633 7.52383 16.978 6.71646 16.0718C5.90672 15.1632 4.51387 15.081 3.60262 15.8839Z" fill="#5350ED"/>
</g>
<defs>
<clipPath id="clip0_subskribe">
<rect width="187" height="34.5175" fill="white"/>
</clipPath>
</defs>
</svg>
